<svg data-name="레이어 1" xmlns="http://www.w3.org/2000/svg" width="85.317" height="10" viewBox="0 0 85.317 10">
    <path data-name="패스 8650" d="M0 0h3.244c1.78 0 2.737.993 2.737 2.411a2.123 2.123 0 0 1-1.438 2.144 2.446 2.446 0 0 1 1.771 2.424 2.725 2.725 0 0 1-3.031 2.828H0zm3.006 4.216c1.607 0 2.217-.628 2.217-1.762A1.722 1.722 0 0 0 3.283.7H.706v3.516zm-2.3 4.89H3.3a2.012 2.012 0 0 0 2.252-2.084c0-1.248-.758-2.123-2.633-2.123H.706z" style="fill:#6f7275"/>
    <path data-name="패스 8651" d="M21.763 12.182a8.952 8.952 0 0 0 .091 1.356h-.637a4.725 4.725 0 0 1-.121-1.1 2.163 2.163 0 0 1-2.165 1.273 2.048 2.048 0 0 1-2.2-2.144c0-1.572 1.126-2.287 3.122-2.287h1.26v-.744c0-.715-.2-1.672-1.732-1.672a1.474 1.474 0 0 0-1.685 1.343h-.666a2.12 2.12 0 0 1 2.365-2c1.516 0 2.369.684 2.369 2.256zM21.109 9.9h-1.3c-1.472 0-2.391.433-2.391 1.641a1.433 1.433 0 0 0 1.524 1.511c1.9 0 2.165-1.356 2.165-2.9z" transform="translate(-9.481 -3.718)" style="fill:#6f7275"/>
    <path data-name="패스 8652" d="M32.33 8.323V6.379h.65c0 .23.026.689.026 1.6a2.538 2.538 0 0 1 2.3-1.771v.775a2.517 2.517 0 0 0-2.313 2.828v3.711h-.663z" transform="translate(-18.329 -3.718)" style="fill:#6f7275"/>
    <path data-name="패스 8653" d="M46.882 11.663v2.083h-.6a11.313 11.313 0 0 1-.039-1.243 2.054 2.054 0 0 1-2.165 1.416c-.953 0-2.165-.4-2.165-2.6V6.6h.654v4.56c0 1.044.3 2.057 1.62 2.057 1.49 0 2.048-.9 2.048-2.945V6.6h.663z" transform="translate(-24.132 -3.939)" style="fill:#6f7275"/>
    <path data-name="패스 8654" d="M56.89 8.169v-1.8h.65c.026.23.039 1.161.026 1.36a2.165 2.165 0 0 1 2.209-1.533c1.182 0 2.23.719 2.23 2.689v4.63h-.676V9c0-1.269-.494-2.1-1.65-2.1-1.581 0-2.126 1.416-2.126 2.975v3.642h-.663z" transform="translate(-32.759 -3.706)" style="fill:#6f7275"/>
    <path data-name="패스 8655" d="M72.23 11.557a1.78 1.78 0 0 0 1.884 1.494c1.187 0 1.663-.585 1.663-1.386s-.32-1.213-1.806-1.6c-1.732-.433-2.139-1-2.139-1.944a1.948 1.948 0 0 1 2.191-1.9 2.165 2.165 0 0 1 2.326 2h-.663A1.6 1.6 0 0 0 74 6.876c-1.156 0-1.49.615-1.49 1.187 0 .658.32.987 1.637 1.33 1.871.485 2.339 1.143 2.339 2.217a2.123 2.123 0 0 1-2.382 2.1 2.362 2.362 0 0 1-2.551-2.144z" transform="translate(-41.199 -3.721)" style="fill:#6f7275"/>
    <path data-name="패스 8656" d="M91.121 9.939c0 1.988-1.022 3.759-3 3.759-1.793 0-2.91-1.585-2.91-3.746 0-2.044 1.048-3.742 2.975-3.742 1.767 0 2.936 1.485 2.936 3.729m-5.2 0c0 1.7.866 3.075 2.261 3.075s2.248-1.273 2.248-3.075c-.013-1.654-.81-3.057-2.282-3.057s-2.235 1.356-2.235 3.07" transform="translate(-49.074 -3.718)" style="fill:#6f7275"/>
    <path data-name="패스 8657" d="M101.75 8.169v-1.8h.65c.026.23.039 1.161.026 1.36a2.165 2.165 0 0 1 2.209-1.533c1.182 0 2.23.719 2.23 2.689v4.63h-.676V9c0-1.269-.494-2.1-1.65-2.1-1.581 0-2.126 1.416-2.126 2.975v3.642h-.663z" transform="translate(-58.59 -3.706)" style="fill:#6f7275"/>
    <path data-name="패스 8658" d="M145.833 7.794a1.2 1.2 0 0 0-.715.212 1.667 1.667 0 0 0-.472.55 2.391 2.391 0 0 0-.255.736 4.218 4.218 0 0 0-.078.8 4.033 4.033 0 0 0 .078.78 2.468 2.468 0 0 0 .243.719 1.551 1.551 0 0 0 .459.528 1.182 1.182 0 0 0 .706.2 1.243 1.243 0 0 0 .983-.39 1.914 1.914 0 0 0 .433-1.048h1.732a3.343 3.343 0 0 1-1 2.165 3.07 3.07 0 0 1-2.126.736 3.274 3.274 0 0 1-1.356-.277 3.031 3.031 0 0 1-1.039-.745 3.465 3.465 0 0 1-.663-1.143 4.283 4.283 0 0 1-.238-1.459 5.1 5.1 0 0 1 .217-1.529 3.53 3.53 0 0 1 .65-1.217 2.954 2.954 0 0 1 1.074-.793 3.309 3.309 0 0 1 1.407-.286 3.824 3.824 0 0 1 1.113.165 2.9 2.9 0 0 1 .944.489 2.6 2.6 0 0 1 .684.836 2.832 2.832 0 0 1 .3 1.182h-1.732a1.234 1.234 0 0 0-1.321-1.217" transform="translate(-82.087 -3.791)" style="fill:#6f7275"/>
    <path data-name="패스 8659" d="M158.957 8.689a2.4 2.4 0 0 1 .343-1.139 2.2 2.2 0 0 1 .7-.723 2.954 2.954 0 0 1 .961-.39 5.006 5.006 0 0 1 1.074-.117 7.042 7.042 0 0 1 .992.074 2.888 2.888 0 0 1 .918.294 1.867 1.867 0 0 1 .676.611 1.793 1.793 0 0 1 .264 1.031v3.685a7.825 7.825 0 0 0 .052.918 1.733 1.733 0 0 0 .173.654h-1.828a2.888 2.888 0 0 1-.082-.333 2.986 2.986 0 0 1-.043-.351 2.278 2.278 0 0 1-1 .671 3.677 3.677 0 0 1-1.182.195 2.949 2.949 0 0 1-.866-.126 1.849 1.849 0 0 1-.7-.385 1.7 1.7 0 0 1-.472-.654 2.4 2.4 0 0 1-.169-.944 2.208 2.208 0 0 1 .195-.992 1.685 1.685 0 0 1 .5-.624 2.135 2.135 0 0 1 .7-.351 7.323 7.323 0 0 1 .8-.186c.268-.043.533-.082.793-.108a4.5 4.5 0 0 0 .689-.121 1.169 1.169 0 0 0 .481-.243.546.546 0 0 0 .16-.459 1.135 1.135 0 0 0-.091-.5.771.771 0 0 0-.251-.286.944.944 0 0 0-.368-.139 2.871 2.871 0 0 0-.433-.035 1.265 1.265 0 0 0-.827.247 1.152 1.152 0 0 0-.351.823zm4.119 1.438a.732.732 0 0 1-.281.169 2.768 2.768 0 0 1-.364.1c-.13.026-.264.052-.407.069s-.286.039-.433.065a3.14 3.14 0 0 0-.394.113 1.126 1.126 0 0 0-.342.182.866.866 0 0 0-.23.294 1.014 1.014 0 0 0-.091.455.949.949 0 0 0 .091.433.723.723 0 0 0 .238.281 1.065 1.065 0 0 0 .351.143 2.165 2.165 0 0 0 .433.039 1.442 1.442 0 0 0 .814-.191 1.2 1.2 0 0 0 .433-.459 1.6 1.6 0 0 0 .169-.541 3.817 3.817 0 0 0 .03-.433z" transform="translate(-91.686 -3.78)" style="fill:#6f7275"/>
    <path data-name="패스 8660" d="M177.473 6.51v1.3h.026a2.486 2.486 0 0 1 .342-.611 2.24 2.24 0 0 1 .489-.481 2.386 2.386 0 0 1 .576-.29 1.953 1.953 0 0 1 .654-.108 1.234 1.234 0 0 1 .39.069V8.2c-.087 0-.186-.035-.3-.048a3.079 3.079 0 0 0-.338 0 1.8 1.8 0 0 0-.832.178 1.516 1.516 0 0 0-.533.455 2.1 2.1 0 0 0-.294.719 4.452 4.452 0 0 0-.087.892v3.2h-1.786V6.51z" transform="translate(-101.337 -3.78)" style="fill:#6f7275"/>
    <path data-name="패스 8661" d="M190.5 9.219a1.9 1.9 0 0 1-.823.811 2.665 2.665 0 0 1-3.356-.87 3.9 3.9 0 0 1-.541-1.189 5.327 5.327 0 0 1-.182-1.4 5 5 0 0 1 .182-1.35 3.613 3.613 0 0 1 .541-1.146 2.719 2.719 0 0 1 .914-.8 2.553 2.553 0 0 1 1.256-.3 2.372 2.372 0 0 1 1.1.263 1.976 1.976 0 0 1 .823.768h.026V.53h1.78v9.581h-1.685v-.892zm-.074-3.43a2.125 2.125 0 0 0-.26-.7 1.481 1.481 0 0 0-.466-.489 1.319 1.319 0 0 0-.728-.187 1.408 1.408 0 0 0-.741.187 1.439 1.439 0 0 0-.481.5 2.152 2.152 0 0 0-.243.726 3.953 3.953 0 0 0-.082.828 3.612 3.612 0 0 0 .087.8 2.269 2.269 0 0 0 .281.717 1.652 1.652 0 0 0 .489.514 1.284 1.284 0 0 0 .71.191 1.32 1.32 0 0 0 .736-.187 1.4 1.4 0 0 0 .472-.5 2.416 2.416 0 0 0 .251-.722 4.722 4.722 0 0 0 .074-.849 4.627 4.627 0 0 0-.074-.824" transform="translate(-106.904 -.3)" style="fill:#6f7275"/>
    <path data-name="패스 8662" d="m124.887.39-2.373 7.388-2.425-7.346-.018-.042h-2.321v9.629h1.624V2.962l2.386 7.015.013.042h1.39l2.4-7.062v7.062h1.624V.39z" transform="translate(-67.862 -.221)" style="fill:#6f7275"/>
</svg>
