<svg id="outline" xmlns="http://www.w3.org/2000/svg" viewBox="0 0 110.3 19.5"><defs><style>.cls-1{fill:#696a6d}.cls-2{fill:#4f8abe}</style></defs><path class="cls-1" d="M119 114.38a7 7 0 0 1 1.49.15 3.19 3.19 0 0 1 1.17.5 2.37 2.37 0 0 1 .77.94 3.42 3.42 0 0 1 .28 1.44 2.8 2.8 0 0 1-.5 1.67 2.51 2.51 0 0 1-1.48 1 2.73 2.73 0 0 1 1.74.85 2.86 2.86 0 0 1 .64 1.93 4.52 4.52 0 0 1-.2 1.34 2.58 2.58 0 0 1-.69 1.11 3.41 3.41 0 0 1-1.26.77 5.6 5.6 0 0 1-1.92.28h-4.44v-12zm-1 4.91a2.75 2.75 0 0 0 1.59-.36 1.39 1.39 0 0 0 .51-1.22 1.44 1.44 0 0 0-.46-1.2 2.4 2.4 0 0 0-1.44-.35h-1v3.13zm.27 5.28a2.71 2.71 0 0 0 1.53-.39 1.57 1.57 0 0 0 .59-1.42 2 2 0 0 0-.16-.87 1.37 1.37 0 0 0-.42-.55 1.41 1.41 0 0 0-.63-.29 3.32 3.32 0 0 0-.8-.09h-1.13v3.61zM124.18 119.88a2.87 2.87 0 0 1 .28-1.32 2.26 2.26 0 0 1 .74-.85 2.91 2.91 0 0 1 1.09-.47 5.8 5.8 0 0 1 1.34-.14 6.52 6.52 0 0 1 1.83.2 2.62 2.62 0 0 1 1.08.56 1.91 1.91 0 0 1 .52.89 4.27 4.27 0 0 1 .14 1.11v4.74a6.26 6.26 0 0 0 .06 1 2.87 2.87 0 0 0 .25.75h-2.41a1.89 1.89 0 0 1-.2-.46l-.12-.47a2.11 2.11 0 0 1-1 .91 4.45 4.45 0 0 1-1.49.21 2.7 2.7 0 0 1-1.12-.21 1.92 1.92 0 0 1-.73-.58 2.46 2.46 0 0 1-.4-.83 3.23 3.23 0 0 1-.13-.91 3.57 3.57 0 0 1 .15-1.1 2.12 2.12 0 0 1 .45-.79 2.27 2.27 0 0 1 .76-.54 5.92 5.92 0 0 1 1.13-.39l1.42-.35a1.57 1.57 0 0 0 .79-.37 1 1 0 0 0 .21-.68 1.17 1.17 0 0 0-.26-.82 1.2 1.2 0 0 0-.9-.29 1.11 1.11 0 0 0-.88.32 1.22 1.22 0 0 0-.29.85v.25h-2.27zm4.06 2.25a3.81 3.81 0 0 1-.53.16 2.05 2.05 0 0 0-1.1.5 1.34 1.34 0 0 0-.33.95 1.75 1.75 0 0 0 .22.89.78.78 0 0 0 .73.37 2 2 0 0 0 .53-.07 1.38 1.38 0 0 0 .5-.25 1.22 1.22 0 0 0 .38-.43 1.29 1.29 0 0 0 .14-.64v-1.77a2.35 2.35 0 0 1-.54.29M134.94 117.33v1.21a3.17 3.17 0 0 1 .93-1.05 2.23 2.23 0 0 1 1.33-.39h.46v2.21h-.79a2.48 2.48 0 0 0-.66.08 2.17 2.17 0 0 0-.6.27 1.46 1.46 0 0 0-.44.51 1.61 1.61 0 0 0-.16.76v5.41h-2.52v-9zM143.31 125.29a2.27 2.27 0 0 1-1 .95 3.37 3.37 0 0 1-1.42.29 2.55 2.55 0 0 1-1.8-.58 2.5 2.5 0 0 1-.63-1.94v-6.68h2.45v6.22a1.48 1.48 0 0 0 .25 1 1 1 0 0 0 .8.27c.86 0 1.29-.5 1.29-1.49v-6h2.46v9h-2.35v-1zM149.14 117.33v1.06a2.46 2.46 0 0 1 1-1 3.25 3.25 0 0 1 1.42-.3 2.52 2.52 0 0 1 1.81.6 2.61 2.61 0 0 1 .63 2v6.68h-2.4v-6.21a1.5 1.5 0 0 0-.25-1 1 1 0 0 0-.8-.28c-.87 0-1.3.5-1.3 1.49v6h-2.45v-9zM173.27 117.33v1.06a2.46 2.46 0 0 1 1-1 3.25 3.25 0 0 1 1.42-.3 2.49 2.49 0 0 1 1.8.6 2.57 2.57 0 0 1 .64 2v6.68h-2.46v-6.21a1.51 1.51 0 0 0-.24-1 1 1 0 0 0-.8-.28c-.87 0-1.3.5-1.3 1.49v6h-2.45v-9zM157 123.7a1.21 1.21 0 0 0 1.32 1.3 1.47 1.47 0 0 0 .93-.27.94.94 0 0 0 .35-.8.82.82 0 0 0-.28-.66 2.09 2.09 0 0 0-.64-.36l-1.77-.59a3.41 3.41 0 0 1-1.57-.95 2.29 2.29 0 0 1-.53-1.56 2.84 2.84 0 0 1 .2-1 2.21 2.21 0 0 1 .64-.86 3.26 3.26 0 0 1 1.13-.59 5.61 5.61 0 0 1 1.65-.21 4 4 0 0 1 2.54.67 2.3 2.3 0 0 1 .82 1.89v.29h-2.27a1.74 1.74 0 0 0-.24-1 1 1 0 0 0-.87-.33 1.45 1.45 0 0 0-.83.24.84.84 0 0 0-.36.73.93.93 0 0 0 .23.61 1.83 1.83 0 0 0 .87.45l1.51.46a3.5 3.5 0 0 1 1.68 1 2.46 2.46 0 0 1 .5 1.61 2.57 2.57 0 0 1-.28 1.25 2.31 2.31 0 0 1-.76.88 3 3 0 0 1-1.15.51 6.65 6.65 0 0 1-1.47.15 7.22 7.22 0 0 1-1.76-.19 2.63 2.63 0 0 1-1.11-.55 2 2 0 0 1-.58-.9 3.92 3.92 0 0 1-.16-1.18v-.32H157zM162.69 119.79a3.66 3.66 0 0 1 .66-1.48 2.73 2.73 0 0 1 1.2-.9 4.59 4.59 0 0 1 1.81-.31 4.73 4.73 0 0 1 1.88.27 2.58 2.58 0 0 1 1.19.9 3.81 3.81 0 0 1 .62 1.49 10.53 10.53 0 0 1 .18 2.08 8.92 8.92 0 0 1-.2 2 3.72 3.72 0 0 1-.65 1.48 2.73 2.73 0 0 1-1.2.88 5.07 5.07 0 0 1-1.82.29 5.4 5.4 0 0 1-1.88-.26 2.64 2.64 0 0 1-1.19-.87 3.81 3.81 0 0 1-.62-1.49 10.63 10.63 0 0 1-.18-2.07 9.62 9.62 0 0 1 .2-2m2.36 3.32a3.84 3.84 0 0 0 .17 1 1.46 1.46 0 0 0 .41.66 1.12 1.12 0 0 0 .73.23 1.05 1.05 0 0 0 1.06-.73 7.42 7.42 0 0 0 .29-2.43 7.33 7.33 0 0 0-.29-2.43 1.05 1.05 0 0 0-1.06-.74 1.12 1.12 0 0 0-.73.23 1.46 1.46 0 0 0-.41.66 3.92 3.92 0 0 0-.17 1v2.55M187.23 116.77a3.43 3.43 0 0 0-.76-.92 3.23 3.23 0 0 0-1-.56 3.65 3.65 0 0 0-2.94.27 3.68 3.68 0 0 0-1.26 1.19 5.76 5.76 0 0 0-.72 1.68 8.17 8.17 0 0 0 0 3.85 5.71 5.71 0 0 0 .72 1.69 3.8 3.8 0 0 0 1.26 1.2 3.55 3.55 0 0 0 1.83.45 3 3 0 0 0 1.34-.3 3.08 3.08 0 0 0 1-.82 4.22 4.22 0 0 0 .7-1.21 5.65 5.65 0 0 0 .35-1.51h1a7.07 7.07 0 0 1-.47 2 5.07 5.07 0 0 1-.93 1.51 3.86 3.86 0 0 1-1.34.95 4.31 4.31 0 0 1-1.71.34 4.63 4.63 0 0 1-2.22-.51 4.86 4.86 0 0 1-1.58-1.37 6 6 0 0 1-.94-2 8.86 8.86 0 0 1 0-4.72 6.2 6.2 0 0 1 .94-2 4.74 4.74 0 0 1 1.58-1.37 4.63 4.63 0 0 1 2.22-.51 4.38 4.38 0 0 1 1.48.25 4.27 4.27 0 0 1 1.33.75 4.37 4.37 0 0 1 1 1.21 4.48 4.48 0 0 1 .5 1.66h-1a4.17 4.17 0 0 0-.44-1.23M190.41 119a2.43 2.43 0 0 1 .65-.9 2.62 2.62 0 0 1 1-.53 4.31 4.31 0 0 1 1.23-.16 4.43 4.43 0 0 1 1 .11 2.53 2.53 0 0 1 .92.4 2.37 2.37 0 0 1 .65.85 3.4 3.4 0 0 1 .26 1.42v4.59c0 .42.18.63.55.63a.73.73 0 0 0 .3-.06v.89h-.61a1.23 1.23 0 0 1-.58-.11.78.78 0 0 1-.34-.31 1.13 1.13 0 0 1-.15-.48 3.74 3.74 0 0 1 0-.61 6.55 6.55 0 0 1-.52.75 3 3 0 0 1-.58.55 2.77 2.77 0 0 1-.74.33 3.5 3.5 0 0 1-1 .12 3.29 3.29 0 0 1-1-.15 2.1 2.1 0 0 1-.83-.45 2.12 2.12 0 0 1-.55-.78 2.82 2.82 0 0 1-.2-1.13 2.42 2.42 0 0 1 .36-1.42 2.28 2.28 0 0 1 1-.78 5.17 5.17 0 0 1 1.33-.38l1.51-.21a4.82 4.82 0 0 0 .52-.08.9.9 0 0 0 .38-.18.79.79 0 0 0 .23-.34 1.57 1.57 0 0 0 .08-.57 2.21 2.21 0 0 0-.15-.88 1.31 1.31 0 0 0-.44-.54 1.55 1.55 0 0 0-.64-.28 4 4 0 0 0-.79-.07 2.25 2.25 0 0 0-1.47.47 2 2 0 0 0-.6 1.53h-.94a3.83 3.83 0 0 1 .28-1.3m4.72 2.58a.53.53 0 0 1-.34.27l-.45.12-1.24.2a6.36 6.36 0 0 0-1.16.28 2.13 2.13 0 0 0-.86.53 1.31 1.31 0 0 0-.34 1 1.76 1.76 0 0 0 .14.71 1.89 1.89 0 0 0 .38.53 1.56 1.56 0 0 0 .56.35 1.78 1.78 0 0 0 .65.12 2.81 2.81 0 0 0 1-.19 2.44 2.44 0 0 0 .86-.53 2.63 2.63 0 0 0 .59-.86 2.9 2.9 0 0 0 .21-1.14v-1.37zM198.87 117.7v2a3.27 3.27 0 0 1 1.13-1.6 2.69 2.69 0 0 1 1.8-.52v1.06a2.49 2.49 0 0 0-1.17.19 2.64 2.64 0 0 0-.91.64 3.11 3.11 0 0 0-.59 1 3.68 3.68 0 0 0-.21 1.27v4.6H198v-8.64zM208.39 126.34v-1.64a2.2 2.2 0 0 1-.44.77 2.89 2.89 0 0 1-.66.6 3.31 3.31 0 0 1-.81.37 2.74 2.74 0 0 1-.84.14 3.16 3.16 0 0 1-1.54-.36 3.22 3.22 0 0 1-1.09-1 4.5 4.5 0 0 1-.64-1.46 7.4 7.4 0 0 1 0-3.5 4.5 4.5 0 0 1 .64-1.46 3.36 3.36 0 0 1 1.09-1 3.16 3.16 0 0 1 1.54-.36 2.94 2.94 0 0 1 .84.11 2.64 2.64 0 0 1 1.41 1 2.47 2.47 0 0 1 .43.82v-5h.95v12zm-5.18-3a3.62 3.62 0 0 0 .45 1.18 2.55 2.55 0 0 0 .78.85 2 2 0 0 0 1.16.33 2.33 2.33 0 0 0 1.27-.33 2.59 2.59 0 0 0 .83-.85 3.44 3.44 0 0 0 .47-1.18 6.39 6.39 0 0 0 0-2.66 3.44 3.44 0 0 0-.47-1.18 2.59 2.59 0 0 0-.83-.85 2.33 2.33 0 0 0-1.27-.32 2 2 0 0 0-1.16.32 2.55 2.55 0 0 0-.78.85 3.62 3.62 0 0 0-.45 1.18 6 6 0 0 0 0 2.66" transform="translate(-114.58 -107.07)"/><path class="cls-2" d="M215.31 108.59a1.13 1.13 0 1 1-1.57-.32 1.14 1.14 0 0 1 1.57.32zM222.12 118.93a1.13 1.13 0 1 1-1.56-.32 1.13 1.13 0 0 1 1.56.32zM212.38 111.15a1.13 1.13 0 1 1-1.46.66 1.14 1.14 0 0 1 1.46-.66zM224 115.51a1.13 1.13 0 1 1-1.46.66 1.14 1.14 0 0 1 1.46-.66zM211.51 114.94a1.13 1.13 0 1 1 .6 2.18 1.12 1.12 0 0 1-1.39-.79 1.13 1.13 0 0 1 .79-1.39zM223.45 111.66a1.13 1.13 0 1 1-.79 1.39 1.14 1.14 0 0 1 .79-1.39zM213 118.52a1.13 1.13 0 1 1 .17 1.59 1.12 1.12 0 0 1-.17-1.59zM220.76 108.85a1.13 1.13 0 1 1 .18 1.59 1.13 1.13 0 0 1-.18-1.59zM216.38 120.52a1.13 1.13 0 0 1 2.25.11 1.13 1.13 0 1 1-2.25-.11zM216.94 108.15a1.13 1.13 0 0 1 1.18-1.07 1.11 1.11 0 0 1 1.08 1.17 1.13 1.13 0 1 1-2.26-.1zM220.31 116.93a.71.71 0 0 1-.2 1 .71.71 0 0 1-1-.2l-3.88-5.88a.71.71 0 0 1 .2-1 .7.7 0 0 1 1 .2z" transform="translate(-114.58 -107.07)"/><path class="cls-2" d="M221.32 115a.68.68 0 0 1 .41.89.69.69 0 0 1-.9.41l-6.59-2.48a.7.7 0 0 1-.41-.9.71.71 0 0 1 .9-.41z" transform="translate(-114.58 -107.07)"/><path class="cls-2" d="M221 112.78a.69.69 0 0 1 .86.49.71.71 0 0 1-.49.86l-6.8 1.86a.69.69 0 0 1-.86-.48.7.7 0 0 1 .49-.86z" transform="translate(-114.58 -107.07)"/><path class="cls-2" d="M219.43 111.2a.7.7 0 0 1 1-.11.71.71 0 0 1 .11 1l-4.4 5.5a.7.7 0 0 1-1 .11.7.7 0 0 1-.11-1z" transform="translate(-114.58 -107.07)"/><path class="cls-2" d="M217.24 110.85a.7.7 0 0 1 .73-.67.7.7 0 0 1 .67.73l-.32 7a.71.71 0 0 1-.73.67.7.7 0 0 1-.67-.73z" transform="translate(-114.58 -107.07)"/><path class="cls-1" d="M116.77 112.39h-.63V108h-1.56v-.55h3.75v.55h-1.56zM121.56 112.39V110a1 1 0 0 0-.21-.68.81.81 0 0 0-.64-.22 1 1 0 0 0-.83.32 1.6 1.6 0 0 0-.27 1v1.94H119v-5.32h.61v1.56a4 4 0 0 1 0 .53 1.12 1.12 0 0 1 .48-.43 1.52 1.52 0 0 1 .69-.15 1.48 1.48 0 0 1 1 .32 1.4 1.4 0 0 1 .34 1v2.44zM124.92 112.46a1.73 1.73 0 0 1-1.32-.51 2 2 0 0 1-.48-1.41 2.13 2.13 0 0 1 .45-1.43 1.47 1.47 0 0 1 1.2-.54 1.43 1.43 0 0 1 1.13.46 1.73 1.73 0 0 1 .42 1.23v.38h-2.57a1.42 1.42 0 0 0 .33 1 1.12 1.12 0 0 0 .87.33 2.62 2.62 0 0 0 .57-.06 3 3 0 0 0 .63-.2v.54a3.25 3.25 0 0 1-.58.19 4 4 0 0 1-.65.02zm-.15-3.39a.89.89 0 0 0-.7.29 1.32 1.32 0 0 0-.3.79h1.91a1.23 1.23 0 0 0-.25-.8.79.79 0 0 0-.66-.28zM133.54 109.89a2.69 2.69 0 0 1-.61 1.88 2.47 2.47 0 0 1-3.4 0 2.79 2.79 0 0 1-.61-1.91 2.75 2.75 0 0 1 .6-1.89 2.19 2.19 0 0 1 1.72-.67 2.11 2.11 0 0 1 1.69.68 2.7 2.7 0 0 1 .61 1.91zm-3.95 0a2.36 2.36 0 0 0 .42 1.51 1.5 1.5 0 0 0 1.22.52 1.48 1.48 0 0 0 1.23-.52 3 3 0 0 0 0-3 1.48 1.48 0 0 0-1.22-.51 1.5 1.5 0 0 0-1.23.51 2.36 2.36 0 0 0-.42 1.49zM136.31 108.57a2 2 0 0 1 .44 0l-.08.57a1.9 1.9 0 0 0-.4-.05 1 1 0 0 0-.56.17 1.07 1.07 0 0 0-.39.45 1.34 1.34 0 0 0-.15.64v2h-.61v-3.75h.5l.07.69a1.58 1.58 0 0 1 .51-.57 1.2 1.2 0 0 1 .67-.15zM137.4 107.62a.37.37 0 0 1 .11-.29.36.36 0 0 1 .25-.1.37.37 0 0 1 .25.1.34.34 0 0 1 .11.29.35.35 0 0 1-.11.3.33.33 0 0 1-.25.1.32.32 0 0 1-.25-.1.38.38 0 0 1-.11-.3zm.66 4.77h-.61v-3.75h.61zM141.76 112.36v-.46a1.31 1.31 0 0 1-1.16.56 1.39 1.39 0 0 1-1.14-.51 2.67 2.67 0 0 1 0-2.86 1.49 1.49 0 0 1 2.3 0l.08-.5h.49v3.81a1.66 1.66 0 0 1-.41 1.22 1.74 1.74 0 0 1-1.27.4 3.26 3.26 0 0 1-1.35-.24v-.56a3 3 0 0 0 1.38.29 1 1 0 0 0 1-1zm-1.08-.4a1 1 0 0 0 .83-.31 1.51 1.51 0 0 0 .26-1v-.15a1.84 1.84 0 0 0-.26-1.09 1 1 0 0 0-.84-.34.82.82 0 0 0-.73.37 1.9 1.9 0 0 0-.26 1.07 1.85 1.85 0 0 0 .25 1.06.85.85 0 0 0 .75.43zM143.51 107.62a.37.37 0 0 1 .11-.29.37.37 0 0 1 .25-.1.42.42 0 0 1 .26.1.37.37 0 0 1 .1.29.38.38 0 0 1-.1.3.37.37 0 0 1-.26.1.33.33 0 0 1-.25-.1.38.38 0 0 1-.11-.3zm.67 4.77h-.62v-3.75h.62zM147.92 112.39V110a1 1 0 0 0-.2-.68.83.83 0 0 0-.64-.22 1 1 0 0 0-.84.32 1.67 1.67 0 0 0-.26 1v1.94h-.62v-3.75h.5l.09.51a1.15 1.15 0 0 1 .49-.43 1.58 1.58 0 0 1 .69-.15 1.35 1.35 0 0 1 1 .34 1.39 1.39 0 0 1 .34 1v2.44zM152 112.39l-.12-.53a1.62 1.62 0 0 1-.56.48 1.76 1.76 0 0 1-.7.12 1.25 1.25 0 0 1-.87-.29 1.06 1.06 0 0 1-.31-.82q0-1.14 1.8-1.2h.64v-.22a.91.91 0 0 0-.19-.63.74.74 0 0 0-.59-.21 1.69 1.69 0 0 0-.56.09 4.73 4.73 0 0 0-.5.2l-.19-.46a2.68 2.68 0 0 1 1.28-.32 1.5 1.5 0 0 1 1 .3 1.24 1.24 0 0 1 .33 1v2.55zm-1.27-.42a1.14 1.14 0 0 0 .81-.28 1 1 0 0 0 .3-.79v-.34h-.56a2.07 2.07 0 0 0-.94.21.63.63 0 0 0-.29.57.58.58 0 0 0 .18.45.75.75 0 0 0 .51.21zM154.23 112.39h-.61v-5.32h.61zM160.16 111.06a1.24 1.24 0 0 1-.47 1 2 2 0 0 1-1.31.38 3.37 3.37 0 0 1-1.38-.23v-.61a3.59 3.59 0 0 0 .7.22 3.67 3.67 0 0 0 .7.08 1.35 1.35 0 0 0 .85-.22.69.69 0 0 0 .28-.59.73.73 0 0 0-.1-.41.93.93 0 0 0-.34-.3 5.64 5.64 0 0 0-.73-.32 2.37 2.37 0 0 1-1-.59 1.31 1.31 0 0 1-.3-.89 1.1 1.1 0 0 1 .44-.93 1.81 1.81 0 0 1 1.15-.35 3.47 3.47 0 0 1 1.38.28l-.19.54a3.29 3.29 0 0 0-1.2-.26 1.07 1.07 0 0 0-.69.19.65.65 0 0 0-.26.54.79.79 0 0 0 .1.4.93.93 0 0 0 .32.3 3.57 3.57 0 0 0 .68.3 3.79 3.79 0 0 1 .83.4 1.3 1.3 0 0 1 .4.45 1.21 1.21 0 0 1 .14.62zM161 107.62a.37.37 0 0 1 .1-.29.4.4 0 0 1 .26-.1.39.39 0 0 1 .25.1.37.37 0 0 1 .11.29.38.38 0 0 1-.11.3.35.35 0 0 1-.25.1.35.35 0 0 1-.26-.1.38.38 0 0 1-.1-.3zm.66 4.77h-.62v-3.75h.62zM165.45 112.39V110a1 1 0 0 0-.21-.68.81.81 0 0 0-.64-.22 1 1 0 0 0-.83.32 1.6 1.6 0 0 0-.27 1v1.94h-.61v-3.75h.49l.1.51a1.21 1.21 0 0 1 .49-.43 1.58 1.58 0 0 1 .69-.15 1.38 1.38 0 0 1 1 .34 1.43 1.43 0 0 1 .33 1v2.44zM168.72 112.46a1.62 1.62 0 0 1-1.26-.5 2 2 0 0 1-.45-1.42 2.14 2.14 0 0 1 .45-1.46 1.67 1.67 0 0 1 1.3-.51 2.51 2.51 0 0 1 .55.06 1.63 1.63 0 0 1 .44.14l-.19.52a2.39 2.39 0 0 0-.81-.18 1 1 0 0 0-.84.35 1.78 1.78 0 0 0-.27 1.07 1.72 1.72 0 0 0 .27 1 .94.94 0 0 0 .8.36 2.29 2.29 0 0 0 1-.22v.55a2.15 2.15 0 0 1-.99.24zM172.17 112.46a1.73 1.73 0 0 1-1.32-.51 2 2 0 0 1-.48-1.41 2.13 2.13 0 0 1 .45-1.43 1.47 1.47 0 0 1 1.2-.54 1.43 1.43 0 0 1 1.13.46 1.73 1.73 0 0 1 .42 1.23v.38H171a1.42 1.42 0 0 0 .33 1 1.12 1.12 0 0 0 .87.33 2.62 2.62 0 0 0 .57-.06 3 3 0 0 0 .63-.2v.54a3.25 3.25 0 0 1-.58.19 4 4 0 0 1-.65.02zm-.15-3.39a.89.89 0 0 0-.7.29 1.32 1.32 0 0 0-.3.79h1.91a1.23 1.23 0 0 0-.25-.8.79.79 0 0 0-.68-.28zM178.23 112.39h-.6v-3.49-.86a1.9 1.9 0 0 1-.21.19l-.76.63-.32-.42 1.35-1h.51zM183.39 109.53c0 2-.77 2.93-2.3 2.93a2.19 2.19 0 0 1-.63-.07v-.52a1.93 1.93 0 0 0 .62.09 1.72 1.72 0 0 0 .92-.23 1.37 1.37 0 0 0 .55-.65 3.07 3.07 0 0 0 .22-1.14h-.05a1.31 1.31 0 0 1-1.19.58 1.35 1.35 0 0 1-1-.4 1.53 1.53 0 0 1-.39-1.11 1.72 1.72 0 0 1 .43-1.23 1.69 1.69 0 0 1 2.06-.2 1.66 1.66 0 0 1 .59.77 3 3 0 0 1 .17 1.18zm-1.7-1.69a.87.87 0 0 0-.72.31 1.3 1.3 0 0 0-.26.86 1.1 1.1 0 0 0 .24.76.94.94 0 0 0 .72.26 1.31 1.31 0 0 0 .56-.12.93.93 0 0 0 .39-.34.75.75 0 0 0 .15-.44 1.5 1.5 0 0 0-.14-.64 1 1 0 0 0-.38-.47.89.89 0 0 0-.56-.18zM184.71 112.39l2-4.43h-2.7v-.56h3.35v.47l-2 4.52zM191.42 109.89a3.58 3.58 0 0 1-.42 1.94 1.52 1.52 0 0 1-2.48 0 3.6 3.6 0 0 1-.42-1.92 3.67 3.67 0 0 1 .4-1.94 1.53 1.53 0 0 1 2.49 0 3.59 3.59 0 0 1 .43 1.92zm-2.71 0a3.77 3.77 0 0 0 .25 1.57.89.89 0 0 0 1.59 0 5.13 5.13 0 0 0 0-3.1.84.84 0 0 0-.8-.5.82.82 0 0 0-.79.49 3.69 3.69 0 0 0-.25 1.54z" transform="translate(-114.58 -107.07)"/></svg>