<?xml version="1.0" encoding="utf-8"?>
<!-- Generator: Adobe Illustrator 28.2.0, SVG Export Plug-In . SVG Version: 6.00 Build 0)  -->
<svg version="1.1" id="_레이어_2" xmlns="http://www.w3.org/2000/svg" xmlns:xlink="http://www.w3.org/1999/xlink" x="0px"
	 y="0px" viewBox="0 0 48.7 22.8" style="enable-background:new 0 0 48.7 22.8;" xml:space="preserve">
<style type="text/css">
	.st0{fill:#6F7275;}
</style>
<path class="st0" d="M23.4,7.2h-2l-3,4.7c0,0-5.6,3.1-7.7,5.7c-0.9,1-1.5,1.9-1.8,2.7c-0.3,1.1,0,2,0.6,2.4c0.2,0.2,0.5,0.2,0.8,0.2
	c3.3-0.4,6.9-5.8,6.9-5.8l3.3-5.2l2.3-1.1l0.7-1.1l-2.3,1.1L23.4,7.2L23.4,7.2z M15.4,16.5c0,0-2,3.1-4.6,4.5
	c-0.1,0.1-0.3,0.1-0.4,0.1c-0.2,0-0.5,0-0.5-0.5c0-1,2.4-4.8,7.7-7.5C17.6,13.1,15.4,16.5,15.4,16.5z"/>
<path class="st0" d="M26.9,7.2h-2L21.3,13c-0.4,0.6,0.1,1.4,0.8,1.4l0,0c0.2,0,0.5-0.1,0.6-0.1l3.5-1.6l0.6-1l-3.7,1.6L26.9,7.2
	L26.9,7.2z"/>
<path class="st0" d="M39.6,0h-2l-6.1,9.6c-0.4,0.6,0.1,1.4,0.8,1.4l0,0c0.2,0,0.5-0.1,0.7-0.1l3.5-1.6l0.6-1l-3.7,1.6L39.6,0z"/>
<polygon class="st0" points="34.1,0 21.6,19.7 23.6,19.7 36.1,0 "/>
<path class="st0" d="M23.6,19.7c0,0-1.2,1.9,0.7,1.4c1.1-0.3,3.4-2.2,4.4-4.2c1-1.9,1.4-4.4,1-7.1l0.4-0.6c0,0,1,4.3-0.9,8
	c-2.2,4.1-4.2,5-6.1,5.5c-1.5,0.3-2.9-0.9-1.6-3L23.6,19.7L23.6,19.7z"/>
<polygon class="st0" points="29.8,9.9 33.3,8.2 33.8,7.2 30.3,8.9 "/>
<polygon class="st0" points="48.7,1.5 33.3,1.5 33.3,2.1 48.3,2.1 "/>
<polygon class="st0" points="24.5,5.3 22.1,5.3 21.9,6 24.1,6 "/>
<polygon class="st0" points="28.5,1.6 26.4,5 28.3,5 30.5,1.6 "/>
<path class="st0" d="M21.4,7.2c0,0-3.2,2.9-5,3.8s-0.7-1.1,1.2-3s3.1-2,4.3-2l0.7-0.6h-0.5c0,0-4.7,0-7.8,4.4
	c-3,4.2,1.1,4.5,7.9-2.5C22.2,7.2,21.4,7.2,21.4,7.2z"/>
<path class="st0" d="M6.2,5.1H4.8l-4.4,6.9c-0.3,0.4,0,1,0.5,1l0,0c0.2,0,0.3,0,0.5-0.1L4,11.6l0.5-0.8l-2.7,1.3L6.2,5.1L6.2,5.1z"
	/>
<polygon class="st0" points="9.5,6.9 0,6.9 0,7.5 9.1,7.5 "/>
<polygon class="st0" points="7.4,5.1 8.8,5.1 3.8,12.9 2.4,12.9 "/>
<path class="st0" d="M8.8,12.1c0-0.4,0.1-0.4,0.1-0.4c0.6-0.3,1.1-0.5,1.3-0.6c1.7-0.8,3.2-2.5,1.4-2.5c-1.2,0-2.2,0.5-3.3,2.3
	C8,11.3,8,11.3,7.9,11.5C7.3,11.8,7,12,6.8,12.1l1.5-2.4c0.3-0.4-0.1-1-0.6-1c-0.2,0-0.3,0-0.4,0.1L4.8,10l-0.5,0.8L7,9.5l-1.8,2.8
	c-0.2,0.2,0,0.5,0.3,0.5l0,0c0.5,0,1-0.1,1.4-0.3c0.2-0.1,0.5-0.2,0.8-0.4c-0.1,0.6,0.3,0.7,0.7,0.7c1.4,0,3.8-1.6,3.8-1.6l0.4-0.8
	C12.6,10.5,8.7,12.9,8.8,12.1z M11.4,9c0.7,0-0.3,1.1-1.1,1.6c-0.3,0.1-0.5,0.3-1.1,0.5C9.8,10.2,10.9,9,11.4,9L11.4,9z"/>
</svg>
